<?xml version="1.0" encoding="UTF-8" standalone="no"?>
<svg
   xmlns:dc="http://purl.org/dc/elements/1.1/"
   xmlns:cc="http://creativecommons.org/ns#"
   xmlns:rdf="http://www.w3.org/1999/02/22-rdf-syntax-ns#"
   xmlns:svg="http://www.w3.org/2000/svg"
   xmlns="http://www.w3.org/2000/svg"
   xmlns:sodipodi="http://sodipodi.sourceforge.net/DTD/sodipodi-0.dtd"
   xmlns:inkscape="http://www.inkscape.org/namespaces/inkscape"
   version="1.1"
   id="svg2"
   viewBox="0 0 407.78118 319.625"
   height="319.625"
   width="407.78119"
   inkscape:version="0.91 r13725"
   sodipodi:docname="WTA_logo_2010.svg">
  <sodipodi:namedview
     pagecolor="#ffffff"
     bordercolor="#666666"
     borderopacity="1"
     objecttolerance="10"
     gridtolerance="10"
     guidetolerance="10"
     inkscape:pageopacity="0"
     inkscape:pageshadow="2"
     inkscape:window-width="1366"
     inkscape:window-height="706"
     id="namedview4208"
     showgrid="false"
     fit-margin-top="10"
     fit-margin-left="10"
     fit-margin-right="10"
     fit-margin-bottom="10"
     inkscape:zoom="1"
     inkscape:cx="234.45608"
     inkscape:cy="137.27001"
     inkscape:window-x="0"
     inkscape:window-y="38"
     inkscape:window-maximized="1"
     inkscape:current-layer="svg2" />
  <defs
     id="defs4">
    <linearGradient
       x1="0"
       y1="0"
       x2="1"
       y2="0"
       gradientUnits="userSpaceOnUse"
       gradientTransform="matrix(387.77881,0,0,387.77881,10.00093,159.8145)"
       spreadMethod="pad"
       id="linearGradient6622">
      <stop
         style="stop-opacity:1;stop-color:#e30a6e"
         offset="0"
         id="stop6624" />
      <stop
         style="stop-opacity:1;stop-color:#452a82"
         offset="0.79355003"
         id="stop6626" />
      <stop
         style="stop-opacity:1;stop-color:#452a82"
         offset="1"
         id="stop6628" />
    </linearGradient>
  </defs>
  <metadata
     id="metadata7">
    <rdf:RDF>
      <cc:Work
         rdf:about="">
        <dc:format>image/svg+xml</dc:format>
        <dc:type
           rdf:resource="http://purl.org/dc/dcmitype/StillImage" />
        <dc:title></dc:title>
      </cc:Work>
    </rdf:RDF>
  </metadata>
  <path
     d="m 153.18078,28.22 c -60.83,23.25 -110,66 -131.535,114.365 l 0,0 c -13.68,30.725 -15.34,61.405 -4.81,88.73 l 0,0 c 18.62,48.3 73.17,78.31 142.365,78.31 l 0,0 c 31.215,0 64.205,-6.295 95.4,-18.22 l 0,0 c 60.825,-23.245 109.995,-65.995 131.53,-114.355 l 0,0 c 13.685,-30.725 15.345,-61.41 4.815,-88.73 l 0,0 C 372.32078,40.01 317.77578,10 248.57578,10 l 0,0 c -31.22,0 -64.205,6.3 -95.395,18.22"
     style="fill:url(#linearGradient6622);stroke:none"
     id="path6630"
     inkscape:connector-curvature="0" />
  <path
     inkscape:connector-curvature="0"
     id="path6646"
     style="fill:#f3ed0e;fill-opacity:1;fill-rule:nonzero;stroke:none"
     d="m 325.45678,192.47708 c 0,7.275 -5.735,13.175 -12.81,13.175 -7.075,0 -12.81,-5.9 -12.81,-13.175 0,-7.275 5.735,-13.175 12.81,-13.175 7.075,0 12.81,5.9 12.81,13.175" />
  <path
     inkscape:connector-curvature="0"
     id="path6650"
     style="fill:#ffffff;fill-opacity:1;fill-rule:nonzero;stroke:none"
     d="m 279.87578,125.47056 c 0,-6.555 -4.825,-10.975 -11.305,-11.3 -0.035,0 -0.935,-0.12 -2.18,-0.12 -11.915,0 -73.95,0.005 -87.035,0.005 -1.53,0 -1.76,0.005 -2.61,0.02 -4.605,0.08 -7.94,2.48 -9.855,6.3 -0.695,1.22 -1.125,2.235 -1.125,2.235 l -18.885,42.655 c 0,0 -17.095,-38.675 -17.725,-40.115 -0.6,-1.385 -1.19,-2.545 -1.19,-2.545 -2.9,-6.06 -6.545,-8.55 -11.17,-8.55 -4.33,0 -7.835,1.795 -11.115,8.305 0,0 -0.46,0.955 -1.115,2.355 -0.655,1.4 -17.965,40.525 -17.965,40.525 l -17.995,-40.565 -0.845,-1.65 c -2.475,-5.375 -5.425,-8.635 -11.12,-8.96 -4.165,-0.245 -8.1,2.185 -10.12,5.725 -1.015,1.775 -2.375,5.32 -0.02,11.33 0.22,0.57 0.32,0.835 0.82,1.965 4.195,9.445 22.845,51.355 27.54,61.925 0.495,1.16 1.025,2.095 1.535,3.025 2.5,4.575 6.045,7.08 10.22,7.08 4.325,0 7.845,-2.305 10.545,-7.115 0.61,-1.09 1.75,-3.68 1.75,-3.68 l 17.905,-40.505 c 0,0 18.21,41.185 18.635,42.045 0.43,0.87 0.835,1.62 1.58,2.89 2.27,3.88 5.105,6.365 9.835,6.365 4.895,0 7.245,-2.505 9.865,-6.43 0.335,-0.505 0.99,-1.695 1.72,-3.195 0.795,-1.635 26.01,-58.515 26.01,-58.515 l 29.375,0.005 0.005,54.385 0.08,1.755 c 0.18,6.66 5.21,12.02 11.61,12.02 6.62,0 11.15,-5.215 11.405,-12.045 l 0.08,-1.815 0,-54.25 c 0,0 27.405,-0.02 29.375,-0.015 1.265,0 1.565,-0.02 2.07,-0.055 6.37,-0.18 11.415,-4.95 11.415,-11.49 m 79.92,59.92 -0.725,-1.33 -35.25,-61.91 -1.13,-1.8 c -2.43,-3.835 -5.51,-6.28 -9.885,-6.375 l -0.005,0 c -4.375,0.095 -7.56,2.645 -9.99,6.59 l -1.175,1.84 -35.02,61.25 -1.115,1.95 c -1.48,2.79 -2.62,4.95 -2.62,7.9 0,6.555 5.01,11.575 11.35,11.59 4.195,0.005 7.665,-2.595 10.335,-6.68 l 1.01,-1.615 27.23,-48.59 27.2,48.805 0.81,1.29 c 2.635,4.165 6.215,6.795 10.405,6.79 6.345,-0.015 11.365,-4.985 11.365,-11.54 0,-2.95 -1.32,-5.41 -2.79,-8.165" />
</svg>
